<mxfile host="app.diagrams.net" modified="2024-02-22T08:42:36.325Z" agent="Mozilla/5.0 (Windows NT 10.0; Win64; x64) AppleWebKit/537.36 (KHTML, like Gecko) Chrome/120.0.0.0 Safari/537.36 OPR/106.0.0.0 (Edition Yx GX 03)" version="23.1.5" etag="ewqsUr25pv66n3ieD8YP" type="github">
  <diagram name="Страница — 1" id="HC4MksUgXdKtcxIoShZo">
    <mxGraphModel>
      <root>
        <mxCell id="0" />
        <mxCell id="1" parent="0" />
      </root>
    </mxGraphModel>
  </diagram>
</mxfile>
